<svg xmlns="http://www.w3.org/2000/svg" width="746" height="700"><path fill="#7b7b7b" d="M260 0c2.983 3.516 4.657 7.459 6.375 11.688l.923 2.269c3.13 7.874 5.62 15.834 7.702 24.043l.973 3.652c8.333 37.56-.632 76.593-20.286 109.036-15.714 23.767-38.38 41.295-63.93 53.437C190 205 190 205 189 206c19.203.429 35.975.065 53.793-7.695 2.783-1.132 5.25-1.848 8.207-2.305-1.426 4.44-3.845 7.422-7 10.75l-1.498 1.594c-12.48 13.133-26.745 22.173-42.55 30.816-46.998 25.74-83.793 58.877-99.48 111.453C98.384 357.995 97.01 365.401 96 373l-.395 2.895c-4.239 37.7 6.613 77.405 30.145 107.19 7.847 9.606 16.55 17.724 26.563 25.04l2.207 1.614c4.908 3.458 9.912 6.023 15.48 8.261l-.351-2.133C165.3 489.233 165.3 489.233 165 476l-.062-2.366c-.66-28.298 3.514-55.67 12.062-82.634l.792-2.522C185.897 363.058 198.24 338.826 215 318l2.063-2.64C229.882 299.24 244.385 285.155 261 273l3.215-2.363c46.383-32.96 104.942-44.779 160.719-35.707 24.492 4.314 46.984 12.79 69.066 24.07q2.32 1.164 4.645 2.324L502 263c-11.526-15.773-25.84-28.195-42-39l-1.833-1.266c-19.547-13.493-45.885-14.935-69.042-14.922l-3.55-.001c-8.261.049-16.396.517-24.6 1.477-5.684.662-11.253.82-16.975.712.716-3.804.716-3.804 3.273-5.57l3.102-1.555 3.57-1.82 1.97-.99a284 284 0 0 0 6.577-3.495c7.799-4.228 15.622-8.232 23.82-11.632l2.082-.87c3.867-1.553 7.51-2.4 11.606-3.068l3-2a226 226 0 0 1 8.25-2.5l2.238-.645q3.255-.933 6.512-1.855l4.047-1.156L427 172l-1.906-1.8C408.894 154.511 396.9 134.036 396 111l-.156-3.21c-.352-13.738 1.864-27.047 5.656-40.228l.61-2.132c1.12-3.662 2.35-6.543 4.89-9.43 16.903 2.718 34.993 18.448 48 29l2.887 2.305C466.93 94.595 475.619 102.002 483 111l1.288 1.521c10.163 12.011 18.771 24.9 25.587 39.104l.878 1.814c1.487 3.262 2.445 6.258 3.009 9.803 1.514 8.573 1.514 8.573 4.238 11.758 6.677 3.893 14.486 5.495 22 7 1.544-27.758-12.972-53.594-29.885-74.557l-1.623-2.029-1.457-1.783C506 102 506 102 506 99a151 151 0 0 1 19.75 7l2.722 1.18c37.846 16.627 37.846 16.627 52.755 29.52 7.709 6.64 14.886 9.3 24.538 12.264 21.15 6.597 37.45 18.849 53.235 34.036l2.352 2.262c3.787 3.721 7.344 7.59 10.808 11.613 3.549 4.099 7.207 8.101 10.84 12.125l4.625 5.125 2.254 2.496a364 364 0 0 1 5.683 6.566c3.516 4.01 7.33 7.421 11.438 10.813l1.741 1.443C716.966 242.247 725.257 248.87 734 255c-.066 1.766-.066 1.766-1 4a62 62 0 0 1-6.937 3.75l-1.96.957C719.325 266 719.325 266 717 266c2.644 2.722 5.23 5.202 8.25 7.5 3.034 2.759 3.476 3.534 3.75 7.5-6.97 19.68-24.72 33.456-42.13 43.19-19.19 10.768-40.298 26.353-49.87 46.81 1 3 1 3 3.625 4.535 14.163 6.41 25.356 8.53 40.375 3.465 17.768-7.41 29.996-22.66 39.977-38.523L722 339h1c-.612 43.573-17.251 85.703-48.143 116.58-12.177 11.665-27.448 19.39-43.482 24.233l-1.95.59c-10.128 2.855-20.552 4.008-31.05 4.034l-3.404.012c-11.12-.14-22.016-1.544-33.033-2.949-42.91-5.432-83.516-4.305-119.125 23.207-3.62 2.952-7.1 6.027-10.528 9.2-1.983 1.817-4.017 3.515-6.098 5.218C419.775 524.729 414.46 531.491 409 538l-1.745 2.074a656 656 0 0 0-20.563 25.816c-5 6.578-10.263 12.884-15.692 19.11l-2.121 2.46c-33.512 38.138-75.757 62.344-126.984 66.263C191.09 656.9 140.552 641.84 100 611l-1.986-1.494C82.364 597.626 67.908 583.647 56 568l-2.328-2.848C46.086 555.717 39.999 545.497 34 535l-1.23-2.124C14.302 500.771-.397 459.423-.062 422l.013-2.059q.02-2.47.049-4.941c2.566 1.283 2.621 2.153 3.594 4.805l.917 2.428.989 2.642c9.66 24.868 23.97 48.064 42.164 67.602 2.01 2.171 3.93 4.385 5.836 6.648 24 27.374 59.52 45.578 94.5 53.875l2.145.535c27.5 6.632 59.09 3.876 84.855-7.535l3.605-1.59c17.463-8.237 31.536-20.257 43.395-35.41l2.059-2.5c8.187-9.959 14.907-20.95 21.816-31.812C314.523 461.146 323.127 447.694 333 435l2-2.625c25.562-32.534 60.662-52.384 101.5-58.75 46.1-4.63 87.189 6.852 128.5 26.375-33.24-34.291-81.503-57.438-128-66l-2.165-.402C415.857 330.238 395.79 330.9 377 335l-2.333.504C353.18 340.308 331.78 348.867 314 362l1.822-.275c21.99-3.242 43.139-3.636 65.178-.725v3l-3.594 1.469C333.661 383.507 303.912 410.584 281 452c-36.393 65.755-36.393 65.755-71.848 76.16-32.73 9.152-67.962 2.692-97.487-13.435C86.747 500.548 64.643 481.172 49 457l-1.131-1.725C12.31 400.874.765 333.356 13.395 269.785c2.035-9.704 4.193-19.132 7.71-28.417 1.003-2.654 1.855-5.33 2.645-8.055l.734-2.512L25 229h2l.25-2.312A68 68 0 0 1 33 210h2l.438-2.25L36 205l.375-2.125c.625-1.875.625-1.875 2-3.187 2.42-2.513 3.319-5.477 4.625-8.688.985-2.007 1.98-4.01 3-6h2c1.075-2.652 2.095-5.284 3-8h2l.75-2.062C56.393 168.727 59.263 164.737 64 160c.68-1.661 1.35-3.327 2-5l3-1a129 129 0 0 0 3-5c3.559-5.338 7.772-10.122 12.063-14.875l1.534-1.732c2.898-3.157 5.169-5.165 9.403-6.393l-.875 3.875C91.365 143.868 90.697 157.771 91 172c4.04-3.973 8.511-8.74 9.375-14.5.875-3.5 3.08-5.019 5.625-7.5q.544-1.99 1-4l4-4 .938-2.375c1.592-3.935 4.186-7.687 8.062-9.625l1.313-2.375c1.913-2.976 3.65-3.912 6.687-5.625l2-3a86 86 0 0 1 3.375-2.812c2.555-2.117 3.933-3.655 5.813-6.5 2.032-3.015 2.479-3.021 5.812-3.688a90 90 0 0 0 2-4l3-1q1.53-1.47 3-3l2-1 2-2c3-2 3-2 5.063-3C164 91 164 91 166 89l2.063-1C170 87 170 87 171 85l2.25-.312C176 84 176 84 178.145 81.754c3.46-3.338 7.049-5.314 11.292-7.504l2.237-1.207c4.112-2.157 7.631-3.597 12.326-4.043l1-3 2.188-.187c3.656-1.057 5.187-3.12 7.812-5.813 2.188-.625 2.188-.625 4-1l2-3 2.313-.375C229.22 54.251 233.207 47.523 237 43l3 1 .797-1.723c1.289-2.44 2.8-4.506 4.453-6.715 6.84-9.74 10.415-19.935 12.988-31.421C259 1 259 1 260 0"/><path fill="#e3d0b6" d="M260 0c2.983 3.516 4.657 7.459 6.375 11.688l.923 2.269c3.13 7.874 5.62 15.834 7.702 24.043l.973 3.652c8.333 37.56-.632 76.593-20.286 109.036-15.714 23.767-38.38 41.295-63.93 53.437C190 205 190 205 189 206c19.203.429 35.975.065 53.793-7.695 2.783-1.132 5.25-1.848 8.207-2.305-1.426 4.44-3.845 7.422-7 10.75l-1.498 1.594c-12.48 13.133-26.745 22.173-42.55 30.816-46.998 25.74-83.793 58.877-99.48 111.453C98.384 357.995 97.01 365.401 96 373l-.395 2.895c-4.239 37.7 6.613 77.405 30.145 107.19 7.83 9.586 16.529 17.712 26.5 25.04l2.182 1.614c4.62 3.27 9.137 5.462 14.493 7.3C171 518 171 518 173 521c1.936.967 1.936.967 4.29 1.79l2.605.913 2.73.922 2.66.945c5.27 1.817 10.16 2.95 15.715 3.43-11.55 7.7-34.568 3.436-47.52.969-41.388-8.655-79.158-35.164-102.71-70.235L49 457l-1.131-1.725C12.31 400.874.765 333.356 13.395 269.785c2.035-9.704 4.193-19.132 7.71-28.417 1.003-2.654 1.855-5.33 2.645-8.055l.734-2.512L25 229h2l.25-2.312A68 68 0 0 1 33 210h2l.438-2.25L36 205l.375-2.125c.625-1.875.625-1.875 2-3.187 2.42-2.513 3.319-5.477 4.625-8.688.985-2.007 1.98-4.01 3-6h2c1.075-2.652 2.095-5.284 3-8h2l.75-2.062C56.393 168.727 59.263 164.737 64 160c.68-1.661 1.35-3.327 2-5l3-1a129 129 0 0 0 3-5c3.559-5.338 7.772-10.122 12.063-14.875l1.534-1.732c2.898-3.157 5.169-5.165 9.403-6.393l-.875 3.875C91.365 143.868 90.697 157.771 91 172c4.04-3.973 8.511-8.74 9.375-14.5.875-3.5 3.08-5.019 5.625-7.5q.544-1.99 1-4l4-4 .938-2.375c1.592-3.935 4.186-7.687 8.062-9.625l1.313-2.375c1.913-2.976 3.65-3.912 6.687-5.625l2-3a86 86 0 0 1 3.375-2.812c2.555-2.117 3.933-3.655 5.813-6.5 2.032-3.015 2.479-3.021 5.812-3.688a90 90 0 0 0 2-4l3-1q1.53-1.47 3-3l2-1 2-2c3-2 3-2 5.063-3C164 91 164 91 166 89l2.063-1C170 87 170 87 171 85l2.25-.312C176 84 176 84 178.145 81.754c3.46-3.338 7.049-5.314 11.292-7.504l2.237-1.207c4.112-2.157 7.631-3.597 12.326-4.043l1-3 2.188-.187c3.656-1.057 5.187-3.12 7.812-5.813 2.188-.625 2.188-.625 4-1l2-3 2.313-.375C229.22 54.251 233.207 47.523 237 43l3 1 .797-1.723c1.289-2.44 2.8-4.506 4.453-6.715 6.84-9.74 10.415-19.935 12.988-31.421C259 1 259 1 260 0"/><path fill="#f0e3cc" d="M407 56c16.903 2.718 34.993 18.448 48 29l2.887 2.305C466.93 94.595 475.619 102.002 483 111l1.288 1.521c10.163 12.011 18.771 24.9 25.587 39.104l.878 1.814c1.487 3.262 2.445 6.258 3.009 9.803 1.514 8.573 1.514 8.573 4.238 11.758 6.677 3.893 14.486 5.495 22 7 1.544-27.758-12.972-53.594-29.885-74.557l-1.623-2.029-1.457-1.783C506 102 506 102 506 99a151 151 0 0 1 19.75 7l2.722 1.18c37.846 16.627 37.846 16.627 52.755 29.52 7.709 6.64 14.886 9.3 24.538 12.264 21.15 6.597 37.45 18.849 53.235 34.036l2.352 2.262c3.787 3.721 7.344 7.59 10.808 11.613 3.549 4.099 7.207 8.101 10.84 12.125l4.625 5.125 2.254 2.496a364 364 0 0 1 5.683 6.566c3.516 4.01 7.33 7.421 11.438 10.813l1.741 1.443C716.966 242.247 725.257 248.87 734 255c-.066 1.766-.066 1.766-1 4a62 62 0 0 1-6.937 3.75l-1.96.957C719.325 266 719.325 266 717 266c2.644 2.722 5.23 5.202 8.25 7.5 3.034 2.759 3.476 3.534 3.75 7.5-6.97 19.68-24.72 33.456-42.13 43.19-19.19 10.768-40.298 26.353-49.87 46.81 1 3 1 3 3.625 4.535 14.163 6.41 25.356 8.53 40.375 3.465 17.768-7.41 29.996-22.66 39.977-38.523L722 339h1l-1 18h-1l-1-6c-8.651 11.362-8.651 11.362-12.187 16.813C701.999 376.604 694.897 383.79 685 388h-3v2c-5.753 1.632-10.963 2.388-16.937 2.375l-2.396-.005c-5.97-.126-10.597-1.066-15.667-4.37l-3.25-2c-5.405-3.931-5.405-3.931-7.75-6v-2l-1.684-.18c-3.363-1.19-5.001-3.313-7.379-5.945l-2.597-2.82c-2.473-3.229-3.748-6.33-5.34-10.055-2.137-2.684-2.137-2.684-4.687-5.437-7.801-8.788-13.932-18.771-20.353-28.579C582.765 307.941 571.11 291.752 557 277l-2.75-2.875C539.72 259.265 522.93 247.37 505 237l-2.73-1.664c-2.353-1.385-4.765-2.425-7.286-3.465-2.198-.965-4.296-2.067-6.421-3.184-11.638-5.853-23.95-9.606-36.563-12.687v2l-2.121-.879c-19.099-7.437-40.415-9.32-60.754-9.309l-3.55-.001c-8.261.049-16.396.517-24.6 1.477-5.684.662-11.253.82-16.975.712.716-3.804.716-3.804 3.273-5.57l3.102-1.555 3.57-1.82 1.97-.99a284 284 0 0 0 6.577-3.495c7.799-4.228 15.622-8.232 23.82-11.632l2.082-.87c3.867-1.553 7.51-2.4 11.606-3.068l3-2a226 226 0 0 1 8.25-2.5l2.238-.645q3.255-.933 6.512-1.855l4.047-1.156L427 172l-1.906-1.8C408.894 154.511 396.9 134.036 396 111l-.156-3.21c-.352-13.738 1.864-27.047 5.656-40.228l.61-2.132c1.12-3.662 2.35-6.543 4.89-9.43"/><path fill="#efe0c8" d="M744 371h1c1.086 9.345 1.243 18.667 1.25 28.063l.002 2.396C746.18 454.83 731.226 509.893 696 551l-2.113 2.523C684.18 564.773 672.736 573.47 660 581l-1.74 1.05c-7.602 4.54-15.372 7.925-23.76 10.763l-2.477.842c-12.976 4.177-25.508 5.868-39.086 5.72l-2.172-.008c-9.732-.042-19.163-.728-28.777-2.284-16.651-2.574-33.98-2.707-49.988 2.917l-3.246 1.133c-18.346 7.058-33.027 20.902-47.048 34.245C443.266 652.91 423.208 667.403 400 678l-2.152.999c-63.226 29.043-136.91 26.65-201.43 3.337-5.594-2.187-11.01-4.722-16.418-7.336v-2c4.729.388 9.392.868 14.062 1.71 11.678 2.09 22.963 2.777 34.813 2.665l2.644-.013c13.023-.076 25.719-.56 38.481-3.362l2.476-.52C297.9 668.028 322.666 657.947 344 643l2.91-2.023c9.023-6.421 17.614-13.25 25.324-21.211C374 618 374 618 377.063 615.5c3.744-3.187 6.763-6.755 9.937-10.5q1.38-1.587 2.762-3.172a413 413 0 0 0 18.033-22.232 983 983 0 0 1 18.017-23.159l1.635-2.057c3.734-4.62 7.59-8.072 12.553-11.38l.5-2c.5-2 .5-2 3.5-4l2.063-.875C448 535 448 535 448.914 533.133c6.45-12.667 27.214-20.497 40.146-24.822 6.683-2.076 12.88-3.536 19.94-3.311v1l-4 1 3.758-.492c5.71-.632 11.377-.655 17.117-.633l3.066-.012c6.738.009 13.361.412 20.059 1.137v-1c7.632.4 15.215.873 22.803 1.787 38.015 4.512 77.588-2.187 108.638-25.717C692.98 471.925 704.364 460.667 713 447l1.238-1.926c4.546-7.151 9.072-14.44 12.762-22.074h2l.25-2.875c.572-4.052 2.006-7.561 3.617-11.305 3.246-8.08 5.304-16.345 7.258-24.82q.78-3.375 1.57-6.75l.688-2.984C743 372 743 372 744 371"/><path fill="#606264" d="M720 350h1c2.986 30.91-13.832 67.339-33 91-3.515 4.148-7.234 8.081-11 12l-1.723 1.95c-11.267 12.361-28.149 20.105-43.902 24.863l-1.95.59c-10.128 2.855-20.552 4.008-31.05 4.034l-3.404.012c-11.12-.14-22.016-1.544-33.033-2.949-42.91-5.432-83.516-4.305-119.125 23.207-3.62 2.952-7.1 6.027-10.528 9.2-1.983 1.817-4.017 3.515-6.098 5.218C419.775 524.729 414.46 531.491 409 538l-1.745 2.074a656 656 0 0 0-20.563 25.816c-5 6.578-10.263 12.884-15.692 19.11l-2.121 2.46c-33.512 38.138-75.757 62.344-126.984 66.263C191.09 656.9 140.552 641.84 100 611l-1.986-1.494C82.364 597.626 67.908 583.647 56 568l-2.328-2.848C46.086 555.717 39.999 545.497 34 535l-1.23-2.124C14.449 501.026.49 462.074 2 425l2 1c.53 2.322.945 4.59 1.313 6.938C7.662 446.528 11.39 459.39 17 472a592 592 0 0 1 2 5.063c1.799 4.53 3.79 8.955 5.836 13.378 1.006 2.21 1.94 4.434 2.852 6.684C29 500 29 500 31 501l.813 2.5c1.777 5.24 4.241 10.554 8.187 14.5 1.431 2.267 2.77 4.518 3.928 6.936 1.083 2.084 2.295 3.842 3.717 5.709l1.552 2.052 1.615 2.115q1.575 2.072 3.145 4.145l1.557 2.05a200 200 0 0 1 4.06 5.692c2.201 3.1 4.672 5.67 7.426 8.301a936 936 0 0 1 3.453 3.523c12.082 12.289 12.082 12.289 18.45 16.942 2.401 1.758 4.676 3.641 6.972 5.535 5.135 4.104 10.483 7.633 16.125 11l1.757 1.05c30.19 17.907 63.716 28.166 98.93 28.2l2.222.003c12.252-.011 24.055-.83 36.091-3.253l2.212-.422c27.061-5.259 52.788-17.824 74.397-34.828C330 581 330 581 333 580v-2c1.645-1.621 1.645-1.621 3.813-3.437 4.039-3.407 4.039-3.407 5.824-5.286C344 568 344 568 346 568l1-3h2l.746-1.715c1.47-2.677 3.232-4.615 5.317-6.847 4.019-4.385 7.812-8.898 11.554-13.52 2.59-3.172 5.23-6.299 7.883-9.418a649 649 0 0 0 9.875-11.875c11.885-14.568 23.93-27.978 38.958-39.355a273 273 0 0 0 4.343-3.395C436.093 472.382 445.495 467.68 455 463l3.188-1.57c17.297-7.814 37.187-10.843 56-10.743l2.11.005c15.653.06 30.876 1.84 46.311 4.398 12.988 2.1 25.626 3.293 38.766 3.285l2.067.005c30.964-.009 55.104-10.35 77.07-31.837 17.937-18.876 31.428-46.286 36.734-71.586C718 352 718 352 720 350"/><path fill="#d0b79a" d="M744 373h1c1.214 8.627 1.243 17.243 1.25 25.938l.002 2.411C746.181 454.764 731.26 509.853 696 551l-2.113 2.523C684.18 564.773 672.736 573.47 660 581l-1.74 1.05c-7.602 4.54-15.372 7.925-23.76 10.763l-2.477.842c-12.976 4.177-25.508 5.868-39.086 5.72l-2.172-.008c-9.732-.042-19.163-.728-28.777-2.284-16.651-2.574-33.98-2.707-49.988 2.917l-3.246 1.133c-18.346 7.058-33.027 20.902-47.048 34.245C443.266 652.91 423.208 667.403 400 678l-2.152.999C344.554 703.479 275.924 708.64 220 690l-1-2c-1.828-.66-3.69-1.226-5.562-1.75-7.975-2.34-15.686-5.265-23.438-8.25v-1c5.474.358 10.693 1.093 16.023 2.406C236.95 686.664 269.582 687.12 301 683c3.066-.243 6.13-.465 9.2-.656L312 682l1-2c3.104-.397 6.188-.509 9.313-.656L325 679l1-2c1.57-.202 3.14-.4 4.713-.584 5.014-.912 9.767-2.913 14.537-4.666l3.238-1.16c7.001-2.544 13.777-5.412 20.512-8.59l2.439-1.13C386.427 653.848 400.042 644.2 413 634c.973-.76 1.946-1.519 2.95-2.3 6.108-4.878 11.825-10.12 17.457-15.536C437.787 612 437.787 612 440 612v-2h2v-2c1.293-1.34 1.293-1.34 3.188-2.937l2.222-1.883L450 601l2.934-2.555c10.287-8.931 20.842-16.94 32.878-23.383l2.064-1.107c4.893-2.532 9.864-4.339 15.124-5.955l2.75-.879A178 178 0 0 1 522 563l2.188-.519c3.345-.572 6.519-.61 9.914-.614l2.051-.003q2.145 0 4.292.006 3.229.005 6.457-.007c19.655-.01 19.655-.01 26.098 2.137 4.724.242 9.457.196 14.188.188l2.07-.003c37.654-.113 71.234-12.79 98.367-39.372C694.25 518.14 699.709 510.749 705 503l1.816-2.586c15.571-23.188 26.002-49.645 31.309-76.976l.391-1.996c2.554-13.17 3.709-26.273 4.282-39.682.217-2.965.672-5.836 1.202-8.76"/><path fill="#858585" d="M506 99a151 151 0 0 1 19.75 7l2.722 1.18c37.846 16.627 37.846 16.627 52.755 29.52 7.709 6.64 14.886 9.3 24.538 12.264 21.15 6.597 37.45 18.849 53.235 34.036l2.352 2.262c3.787 3.721 7.344 7.59 10.808 11.613 3.549 4.099 7.207 8.101 10.84 12.125l4.625 5.125 2.254 2.496a364 364 0 0 1 5.683 6.566c3.516 4.01 7.33 7.421 11.438 10.813l1.741 1.443C716.966 242.247 725.257 248.87 734 255c-.14 1.797-.14 1.797-1 4-2.547 1.703-2.547 1.703-5.75 3.25l-3.172 1.578c-2.98 1.135-4.933 1.428-8.078 1.172v2a646 646 0 0 1-5.187 1.813l-2.918 1.019c-19.942 6.242-43.624 7.89-62.762-1.775-12.183-6.621-22.063-16.141-30.59-26.967-5.412-6.727-11.574-12.861-17.543-19.09l-2.648-2.777c-10.762-11.045-23.97-20.042-37.57-27.274-1.502-.8-2.96-1.679-4.407-2.574-2.026-1.173-3.974-2.094-6.125-3C543 185 543 185 542 184a74 74 0 0 1-.316-4.473l-.127-2.724-.12-2.865-.13-2.877q-.16-3.53-.307-7.061h-2l-.812-3.156c-2.874-10.692-6.81-20.18-12.188-29.844l-1.063-1.93c-4.507-8.093-9.532-15.484-15.483-22.592C506 102.3 506 102.3 506 99"/><path fill="#d5bea0" d="M418.694 194.684c2.67.003 5.34-.02 8.01-.045 10.83-.04 20.726.982 31.296 3.361q2.967.592 5.938 1.168l5.062 1.02 2.672.537L478 202v2l2.688.25c11.369 1.705 21.339 6.454 31.39 11.753 1.965 1.02 3.95 1.984 5.942 2.95 3.986 1.988 7.67 4.302 11.355 6.797l1.97 1.326c8.306 5.653 15.867 12.002 23.284 18.772a302 302 0 0 0 6.433 5.652c7.22 6.303 13.722 13.22 19.938 20.5l3.031 3.473 3.282 3.777 1.6 1.827c3.865 4.475 3.865 4.475 5.255 7.282C595 290 595 290 598 291c1.473 1.496 1.473 1.496 3.063 3.438C608.9 303.62 618.017 313.508 629 319v2l1.914-1.137c12.784-7.313 24.828-10.553 39.274-11.925C691.222 305.9 703.628 299.11 718 284c-1.245-3.512-2.59-5.963-5.125-8.687C710 272.21 710 272.21 710 270l-3-1 9-2v-2l3 1h-2c2.644 2.722 5.23 5.202 8.25 7.5 3.034 2.759 3.476 3.534 3.75 7.5-6.97 19.68-24.72 33.456-42.13 43.19-19.19 10.768-40.298 26.353-49.87 46.81 1 3 1 3 3.625 4.535 14.163 6.41 25.356 8.53 40.375 3.465 17.768-7.41 29.996-22.66 39.977-38.523L722 339h1l-1 18h-1l-1-6c-8.651 11.362-8.651 11.362-12.187 16.813C701.999 376.604 694.897 383.79 685 388h-3v2c-5.753 1.632-10.963 2.388-16.937 2.375l-2.396-.005c-5.97-.126-10.597-1.066-15.667-4.37l-3.25-2c-5.405-3.931-5.405-3.931-7.75-6v-2l-1.684-.18c-3.363-1.19-5.001-3.313-7.379-5.945l-2.597-2.82c-2.473-3.229-3.748-6.33-5.34-10.055-2.137-2.684-2.137-2.684-4.687-5.437-7.801-8.788-13.932-18.771-20.353-28.579C582.765 307.941 571.11 291.752 557 277l-2.75-2.875C539.72 259.265 522.93 247.37 505 237l-2.73-1.664c-2.353-1.385-4.765-2.425-7.286-3.465-2.198-.965-4.296-2.067-6.421-3.184-11.638-5.853-23.95-9.606-36.563-12.687v2l-2.121-.879c-19.099-7.437-40.415-9.32-60.754-9.309l-3.546-.001c-9.128.054-18.091.705-27.153 1.751-4.167.467-8.235.515-12.426.438l1-3c2.773-1.062 2.773-1.062 6.375-2l3.844-1.02L361 203q2.938-.842 5.875-1.687c3.131-.855 6.15-1.517 9.375-1.875 3.75-.438 3.75-.438 6.875-1.375 11.544-3.44 23.64-3.408 35.57-3.379"/><path fill="#656668" d="M659 610c-4.269 9.735-14.977 16.312-23.205 22.606a216 216 0 0 0-5.033 4.046C572.353 684.557 492.638 705.897 418 699c.059-1.742.059-1.742 1-4a74 74 0 0 1 7.063-4.125 1312 1312 0 0 0 4.41-2.398l2.285-1.242c15.865-8.742 29.6-19.76 42.863-32.036 2.744-2.537 5.55-4.992 8.379-7.433a156 156 0 0 0 4.188-3.844c15.544-14.625 34.473-25.575 56.416-24.916 8.129.416 16.148 1.466 24.208 2.557 28.162 3.772 55.829.975 82.253-9.683 2.83-1.14 4.848-1.88 7.935-1.88"/><path fill="#606163" d="M407 56c16.903 2.718 34.993 18.448 48 29l2.887 2.305C466.93 94.595 475.619 102.002 483 111l1.288 1.521C498.272 129.05 516 152.351 516 175c-4.64-.483-9.248-1.017-13.855-1.754-18.373-2.85-36.83-3.1-55.368-1.766l-3.436.226q-3.185.223-6.362.553c-6.91.494-6.91.494-10.042-1.712-1.816-1.856-1.816-1.856-3.45-3.805-1.862-2.182-4.033-3.296-6.487-4.742-12.222-13.345-20.294-32.944-21-51l-.156-3.21c-.352-13.738 1.864-27.047 5.656-40.228l.61-2.132c1.12-3.662 2.35-6.543 4.89-9.43"/><path fill="#969696" d="M562.53 398.874C565 400 565 400 567.767 401.014L570 402c.813 2.125.813 2.125 1 4a226 226 0 0 1-16.375-5.312C539.038 395.087 523.337 390.763 507 388l-2.028-.36c-21.649-3.705-45.505-3.047-66.972 1.36l-2.483.504C405.605 395.8 379.94 408.93 357 429l-2.246 1.906c-8.272 7.057-15.696 14.758-22.477 23.254-2.351 2.933-4.778 5.79-7.214 8.652-6.002 7.186-11.33 14.804-16.662 22.494-24.118 34.666-24.118 34.666-35.292 43.94-2.498 2.078-4.893 4.255-7.296 6.442C249.132 550.859 230.837 560.634 209 566l-2.138.54c-19.796 4.8-41.039 3.392-60.862-.54l-2.379-.472C123.591 561.34 104.752 552.661 88 541c-.639-.44-1.277-.88-1.936-1.332C59.692 521.384 59.692 521.384 54 510l-2-.937C50 508 50 508 49 505h-2c-4-5.412-4-5.412-4-8h-2c-5.827-6.976-10.34-15.226-15-23l-1.652-2.652-1.41-2.348-1.223-2c-.94-2.629-.446-4.352.285-7 3.004 2.808 5.137 5.606 7.25 9.125 5.352 8.575 11.794 16.058 18.602 23.504 1.91 2.109 3.751 4.259 5.586 6.433C77.498 526.453 112.957 544.689 148 553l2.145.535c27.5 6.632 59.09 3.876 84.855-7.535l3.605-1.59c17.463-8.237 31.536-20.257 43.395-35.41l2.059-2.5c8.187-9.959 14.907-20.95 21.816-31.812C314.523 461.146 323.127 447.694 333 435l2-2.625c25.562-32.534 60.662-52.384 101.5-58.75 44.99-4.518 85.645 6.156 126.03 25.25"/><path fill="#868686" d="M407 56c16.903 2.718 34.993 18.448 48 29l2.887 2.305C466.93 94.595 475.619 102.002 483 111l1.288 1.521C498.272 129.05 516 152.351 516 175c-7.377-.75-14.678-1.834-22-3v-1h10c-6.144-19.17-15.816-35.81-29.676-50.52-1.971-2.104-3.808-4.254-5.637-6.48-7.515-8.575-16.952-15.268-26.125-21.937C430.887 83.562 418.772 74.648 410 63v-2h-2c-3.443 35.725-1.058 66.455 21.73 95.462 7.598 9.202 7.598 9.202 12.27 11.538v2l1.925-.217c7.606-.781 15.121-.901 22.762-.845l3.608.013q4.353.018 8.705.049v1q-8.752.43-17.505.854l-5.947.292-8.58.417-2.658.132c-14.716.701-14.716.701-17.447-1.12l-1.55-1.887c-1.87-2.212-3.258-3.656-5.782-5.125-12.011-7.415-18.74-27.083-21.855-40.247-.844-4.142-1.51-8.091-1.676-12.316l-.156-3.21c-.352-13.738 1.864-27.047 5.656-40.228l.61-2.132c1.12-3.662 2.35-6.543 4.89-9.43"/><path fill="#a6a6a6" d="M506 99a151 151 0 0 1 19.75 7l2.722 1.18c37.846 16.627 37.846 16.627 52.755 29.52 7.709 6.64 14.886 9.3 24.538 12.264 21.15 6.597 37.45 18.849 53.235 34.036l2.352 2.262c3.787 3.721 7.344 7.59 10.808 11.613 3.549 4.099 7.207 8.101 10.84 12.125l4.625 5.125 2.254 2.496a364 364 0 0 1 5.683 6.566c3.516 4.01 7.33 7.421 11.438 10.813l1.741 1.443C716.966 242.247 725.257 248.87 734 255l-1 3v-2l-2.02-.27c-3.837-.94-7.174-2.625-10.668-4.417-.71-.363-1.422-.725-2.155-1.098-18.3-9.41-33.027-22.19-45.786-38.274-3.35-4.154-6.86-8.166-10.387-12.171-3.785-4.356-3.785-4.356-5.082-7.055-1.21-2.3-2.576-2.61-4.902-3.715a171 171 0 0 1-4.75-4.5c-10.952-10.078-23.336-16.484-37.25-21.5l-2.82-1.18c-4.799-1.962-8.993-2.963-14.186-3.344-5.908-.456-10.3-.875-14.557-5.413l-2.011-2.403c-3.104-3.403-6.577-5.972-10.301-8.66l-1.987-1.457c-2.685-1.936-4.979-3.49-8.138-4.543v-2l-2.02-.703c-3.81-1.659-7.173-3.81-10.668-6.047l-4.289-2.719-2.09-1.324c-2.467-1.54-4.978-3-7.495-4.457-10.482-6.274-10.482-6.274-12.5-11.5-.938-2.25-.938-2.25-4.063-3.562L510 103l1 4c-2.5-2.312-2.5-2.312-5-5z"/><path fill="#6e6d6c" d="M577 203c5.155 1.575 10.013 3.338 14.785 5.852 1.634.847 3.292 1.647 4.961 2.421C604.6 214.97 611.231 219.59 618 225l2.086 1.617c1.35 1.072 2.643 2.218 3.914 3.383v2h2v2h2c1.375 1.469 1.375 1.469 3 3.5 10.936 12.842 26.424 22.29 43 25.5 5.05.387 10.063.375 15.125.313l3.957.01c6.982-.04 13.164-.592 19.918-2.323 2.694-.154 5.299-.098 8 0l-2 4h-3v2a646 646 0 0 1-5.187 1.813l-2.918 1.019c-19.942 6.242-43.624 7.89-62.762-1.775-12.183-6.621-22.063-16.141-30.59-26.967-5.412-6.727-11.574-12.861-17.543-19.09l-2.648-2.777a105 105 0 0 0-13.504-11.715C579 206 579 206 577 203"/><path fill="#7d7e7e" d="m409 58-.402 2.387c-5.33 32.877-2.118 63.44 17.34 91.05 9.735 13.4 9.735 13.4 16.062 16.563v2l1.925-.217c7.606-.781 15.121-.901 22.762-.845l3.608.013q4.353.018 8.705.049v1q-8.752.43-17.505.854l-5.947.292-8.58.417-2.658.132c-14.716.701-14.716.701-17.447-1.12l-1.55-1.887c-1.87-2.212-3.258-3.656-5.782-5.125-12.011-7.415-18.74-27.083-21.855-40.247-.844-4.142-1.51-8.091-1.676-12.316l-.156-3.21c-.353-13.779 1.895-27.122 5.656-40.353l.61-2.183C404.31 58 404.31 58 409 58"/><path fill="#70706f" d="M452 216c5.31.634 10.257 1.78 15.375 3.313l2.282.682c5.34 1.63 10.351 3.496 15.343 6.005l3.004 1.242c10.56 4.813 15.845 12.206 21.996 21.758l1.608 2.497C527 275.707 527 275.707 527 283a43.3 43.3 0 0 1-11-7v-2l-1.734-.852a128 128 0 0 1-6.516-3.523l-2.14-1.21L504 267v-4l-3-1c-1.262-1.504-1.262-1.504-2.687-3.562-12.023-15.82-27.628-28.502-44.862-38.256L452 219z"/><path fill="#6f6f70" d="m510 103 7 1 .188 1.688c1.151 3.277 3.315 4.932 5.812 7.312 1.35 1.652 2.68 3.322 4 5l1.377 1.69c16.27 19.98 29.646 43.708 28.623 70.31-5.136-.514-11.218-2.218-15-6a74 74 0 0 1-.316-4.473l-.127-2.724-.12-2.865-.13-2.877q-.16-3.53-.307-7.061h-2l-.812-3.156c-5.005-18.62-14.134-36.116-26.102-51.258-1.441-2.105-1.928-4.055-2.086-6.586"/><path fill="#a1a1a0" d="M722 339h1l-1 18h-1l-1-6c-8.651 11.362-8.651 11.362-12.187 16.813C701.999 376.604 694.897 383.79 685 388h-3v2c-5.753 1.632-10.963 2.388-16.937 2.375l-2.396-.005c-5.97-.126-10.597-1.066-15.667-4.37l-3.25-2c-5.405-3.931-5.405-3.931-7.75-6v-2l-1.676-.172c-3.409-1.214-5.1-3.414-7.511-6.078l-2.668-2.89c-2.107-2.81-2.825-4.417-3.145-7.86l1.32 1.172c2.915 2.549 5.765 4.963 9.055 7.015C634 371 634 371 635 374a103 103 0 0 0 7.375 4.125l2.078 1.09c9.824 5.103 23.044 6.03 33.754 2.668 2.996-1.19 5.883-2.5 8.793-3.883h2l.277-1.824c.907-2.729 1.93-3.389 4.285-4.988 11.628-8.344 19.762-18.657 27.38-30.676z"/><path fill="#ddd4c9" d="m675 568 2 1c-22.547 20.28-53.615 30.207-83.5 30.25l-2.241.007c-9.022.01-17.772-.294-26.697-1.757-17.507-2.84-35.661-3.438-52.562 2.5l-3.246 1.133c-18.346 7.058-33.027 20.902-47.048 34.245C443.28 652.898 423.213 667.442 400 678l-2.217 1.015c-9.059 4.098-18.213 7.627-27.72 10.548l-2.566.799-2.4.704-2.108.624c-2.276.355-3.813.007-5.989-.69l1.845-.58c14.966-4.705 29.384-9.29 43.357-16.505 1.757-.894 3.533-1.75 5.31-2.606 22.632-10.923 42.308-26.846 59.843-44.715C475.618 618.489 485.977 608.93 497 605v-2q3.404-1.259 6.813-2.5l1.947-.723C508.65 598.73 510.9 598 514 598v-2c16.287-4.923 30.971-4.603 47.625-1.5 19.943 3.506 39.554 4.14 59.375-.5l3.277-.691c7.283-1.64 13.952-4.191 20.723-7.309l1.86-.848c10.21-4.7 19.208-10.341 28.14-17.152"/><path fill="#c6c6c6" d="M497.953 261.324C501 263 501 263 504 263l1 5a66 66 0 0 1-9.5-4.5c-12.627-6.956-25.651-13.412-39.5-17.5l-4.133-1.437c-5.252-1.76-10.58-2.972-15.992-4.125l-3.08-.658c-49.695-10.395-106.802-4.162-150.647 22.986C280 264 280 264 277 264v2l-7 2c20.56-24.036 70.562-33.14 99.99-35.536 44.309-3.059 89.554 6.013 127.963 28.86"/><path fill="#d2bc9e" d="M90 134c1.137 3.41.718 4.558 0 8a171 171 0 0 0-.133 6.762l-.004 3.888.007 2.007q.005 3.052-.007 6.103l.004 3.877.004 3.553C90 171 90 171 91 173h2l-.621 2.414-.817 3.211-.808 3.164c-1.615 6.876-2.04 13.548-2.317 20.586l-.13 3.098Q88.148 209.236 88 213c-1.795-2.693-2.472-4.237-3.254-7.273l-.65-2.5-.659-2.602-.67-2.578C77.47 177.497 77.783 154.074 88 135z"/><path fill="#c4c5c5" d="M559 397c-3.282 1.113-4.915.936-8.055-.477l-2.339-1.026-2.481-1.122q-2.592-1.127-5.187-2.246l-2.567-1.113c-12.095-5.183-24.54-8.303-37.371-11.016l-2.79-.607c-35.585-7.559-80.713-6.027-112.44 13.689C384 394 384 394 381 394v2l-3.312 1.5c-11.335 5.697-20.836 14.547-29.688 23.5l-2-1c56.874-60.687 142.846-55.27 213-23"/><path fill="#eae5db" d="m706 457 2 1a797 797 0 0 1-3.875 5l-2.18 2.813L700 468h-2l-.691 1.703C689.969 482.585 669.535 495.206 656 500h-3v2q-3.624 1.221-7.25 2.438l-2.066.697c-3.21 1.075-6.397 2.066-9.684 2.865l-3.684.973c-12.09 2.887-23.885 3.42-36.254 3.402l-2.388.005c-10.076-.003-19.728-.641-29.674-2.38v-2l-13-1v-1c7.632.4 15.215.873 22.803 1.787 38.015 4.512 77.588-2.187 108.638-25.717 9.345-7.56 17.851-15.858 25.559-25.07"/><path fill="#d6cdc2" d="m367 203-5 2 3.978-.063c28.554-.416 55.237-.157 83.022 7.063-1.182 1.546-1.182 1.546-3 3-2.334-.087-2.334-.087-5.094-.73l-3.091-.683-3.315-.774c-25.302-5.44-50.333-6.229-76.074-3.25-4.167.466-8.235.514-12.426.437l1-3c3.09-1.133 3.09-1.133 6.938-2.125 10.3-2.704 10.3-2.704 13.062-1.875"/><path fill="#d9d4cc" d="M180 673c5.424.445 10.692 1.12 16.043 2.118 12.56 2.256 24.922 2.225 37.644 2.07q3.267-.024 6.534-.042 7.89-.049 15.779-.146c-2 2-2 2-4.82 2.195l-3.305-.07-3.32-.055L242 679v2h-16v2c-8.414-.293-16.13-1.537-24.261-3.628-3.4-.867-6.2-1.372-9.739-1.372q4.468 1.66 8.938 3.313l2.517.935A450 450 0 0 0 220 688c-3.683 1.346-5.852.632-9.473-.695l-3.228-1.172-3.362-1.258-3.279-1.187c-7.04-2.585-13.878-5.483-20.658-8.688z"/><path fill="#bcbdbe" d="M382 234v1l-1.914.104c-33.86 1.967-68.78 9.57-97.969 27.685C280 264 280 264 277 264v2l-7 2c23.285-27.223 79.177-35.298 112-34"/><path fill="#ede9df" d="M509 505v1l-3.105.55-4.082.762-2.042.358c-4.221.803-7.167 2.063-10.771 4.33-2.576.978-5.148 1.91-7.75 2.813-6.422 2.312-11.776 5.061-17.25 9.187l-3.062 1.938c-3.904 2.74-7.403 5.868-10.938 9.062l-2-2c15.276-14.897 38.878-28.705 61-28m-66 32 3 2-5 4-1-3zm-7 8 2 2-1.758 1.688c-4.92 4.807-9.315 9.66-13.242 15.312l-2-2q2.904-3.408 5.813-6.812l1.658-1.948 1.611-1.885 1.476-1.73c1.425-1.605 2.908-3.123 4.442-4.625"/><path fill="#ded4c5" d="M94 126c1.202 3.606.656 4.77-.375 8.375C90.693 146.277 90.929 158.799 91 171l-2 1a3994 3994 0 0 1-.055-12.433 1605 1605 0 0 0-.02-4.222c-.013-2.033-.018-4.066-.023-6.099l-.016-3.697c.115-3.584.54-7.012 1.114-10.549h-2l-.312 1.563c-.93 3.297-2.302 6.303-3.688 9.437l-2.125-.812c-3.335-.218-3.74.18-6.187 2.25L73 150c0-3.98 1.31-4.762 4-7.625a380 380 0 0 0 11.176-12.562C90.02 127.98 91.622 127.008 94 126"/><path fill="#ded4c4" d="m321 659-2 2h-3l-1 3-2.012.332c-5.013.9-8.651 1.908-12.988 4.668l-3-1-1 2c-3.325 2.217-6.505 3.126-10.312 4.125l-1.975.55c-3.06.816-5.77 1.325-8.943 1.317-2.77.008-2.77.008-4.595.95-4.39 2.135-9.502 2.219-14.3 2.808l-3.363.457-3.207.402-2.938.374L244 681l-2-2 2.484-.148 3.266-.227c1.067-.07 2.135-.14 3.234-.21C254 678 254 678 255.921 677.027c2.177-1.076 3.97-1.499 6.36-1.887l2.52-.433 2.699-.458c15.53-2.824 30.126-7.247 44.499-13.798l2.255-1.01 1.979-.916C318 658 318 658 321 659"/><path fill="#d6c8b8" d="M744 373h1c1.214 8.627 1.243 17.243 1.25 25.938l.002 2.411c-.03 22.766-3.157 44.476-8.252 66.651h-1c.677-8.166 2.021-16.123 3.54-24.17 2.647-14.572 2.564-29.015 2.46-43.767q-.04-5.764-.062-11.528l-.026-2.633c-.017-4.422.19-8.547 1.088-12.902"/><path fill="#969796" d="m397.375 246.75 2.55-.002c13.24.017 26.061.63 39.075 3.252l2.728.536c13.042 2.62 25.67 6.23 38.272 10.464-3.556 1.248-5.764.734-9.324-.363l-3.12-.94-3.243-1.01c-18.59-5.687-18.59-5.687-24-5.687-2.313 0-2.313 0-5-.93-11.443-3.694-24.265-3.437-36.188-3.382l-2.272.001c-13.228.026-26.133 1.067-39.237 2.947-3.864.538-7.737.952-11.616 1.364 3.872-2.076 7.701-2.838 12-3.562l2.098-.381c12.354-2.142 24.775-2.298 37.277-2.307"/><path fill="#ebe5dc" d="m403 586 2 1-2.09 2.457-2.848 3.356-1.528 1.797a394 394 0 0 0-8.784 10.765C380.71 616.456 370.254 626.216 359 635l-2.687 2.25-2.625 2.188-2.301 1.933c-2.697 1.84-5.261 2.731-8.387 3.629 3.072-3.39 6.315-5.993 10.063-8.625 5.424-3.87 10.237-8.156 15.082-12.707 2.51-2.346 5.068-4.61 7.668-6.856 4.119-3.655 7.65-7.6 11.187-11.812a2020 2020 0 0 1 2.96-3.441c9.067-10.524 9.067-10.524 13.04-15.559"/><path fill="#eae1d3" d="M261 4h2c4.838 11.14 9.012 22.219 12 34l.973 3.652c2.232 10.061 2.342 20.148 2.402 30.41l.024 2.171c.09 10.58-1.112 20.44-3.399 30.767h-1q.216-2.5.438-5l.246-2.812c.223-2.25.508-4.494.836-6.731C278.848 64.085 274.4 38.565 265 14h-2z"/><path fill="#d2cfc8" d="M180 673c9.117.724 18.016 2.343 27 4v2l3 1q-2.25-.216-4.5-.437l-2.531-.247c-3.663-.39-7.315-.851-10.969-1.316q4.468 1.66 8.938 3.313l2.517.935A450 450 0 0 0 220 688c-3.683 1.346-5.852.632-9.473-.695l-3.228-1.172-3.362-1.258-3.279-1.187c-7.04-2.585-13.878-5.483-20.658-8.688z"/><path fill="#c7c8c9" d="M593 146c5.46.53 10.303 1.518 15.438 3.5l2.061.79C623.7 155.52 640.773 162.878 649 175c-3.624-.595-5.457-2.035-8.187-4.437-4.576-3.767-9.347-6.872-14.438-9.875l-2.134-1.274c-5.654-3.283-11.298-5.597-17.616-7.351-4.678-1.372-9.125-3.198-13.625-5.063z"/><path fill="#e5ded3" d="M244 163c0 3.883-1.593 5.007-4.215 7.683l-1.847 1.817-1.909 1.885C225.543 184.516 201.436 206 186 206l1-3c1.608-.743 3.225-1.472 4.874-2.12C212.16 192.485 228.827 178.555 244 163"/><path fill="#ccc5bb" d="m185 526 16 3c-6.35 4.233-14.568 3.122-21.937 3.063l-3.229-.014A2271 2271 0 0 1 168 532v-2l-2-1h18z"/><path fill="#dad4cb" d="M251 196c-1.25 3.653-1.671 4.78-5 7v-3l-3.184 1.242-4.254 1.633-2.083.816c-10.917 4.164-20.97 4.565-32.542 4.434q-2.322-.016-4.646-.027A2176 2176 0 0 1 188 208l1-2 2.133.048C212.216 206.455 231.988 196 251 196"/><path fill="#bba78e" d="M190 677c9.567.617 18.692 2.82 28 5l1 5c-10.31-1.516-19.513-4.783-29-9z"/><path fill="#a7a7a7" d="m542 392 2.563 1.023c10.405 4.092 10.405 4.092 14.812 5.102 3.927.948 7.058 1.982 10.625 3.875.691 2.102.691 2.102 1 4-7.01-1.987-13.856-4.33-20.703-6.816A364 364 0 0 0 541 396z"/><path fill="#dacebf" d="M557 594v1l-2.567.076q-4.748.144-9.494.296a1915 1915 0 0 1-4.096.125q-2.957.09-5.913.187l-3.587.11c-3.18.196-6.21.644-9.343 1.206-2.678.112-5.317.046-8 0 11.42-7.613 30.343-6.136 43-3"/><path fill="#d9c7b0" d="m367 203-5 2 1.782-.007q9.198-.032 18.396-.048 3.43-.008 6.862-.02c3.291-.013 6.583-.018 9.874-.023l3.088-.015c4.782 0 9.297.107 13.998 1.113v1l-3.566-.016c-43.081-.175-43.081-.175-63.434 1.016 2.822-1.882 5.279-3 8.438-4.187l2.87-1.106c2.763-.726 4.056-.685 6.692.293"/><path fill="#c3c4c4" d="m639 375 3.07 1.277 4.055 1.66 2.016.842c11.256 4.58 21.398 3.84 32.859.221 2.027-.944 4.043-1.918 6-3h2v2q-2.623 1.224-5.25 2.438l-2.953 1.37c-8.673 3.695-21.137 4.15-30.148 1.5-4.14-1.68-7.915-3.848-11.649-6.308z"/><path fill="#e2dbcf" d="m321 659-2 2h-3l-1 3-2.012.332c-5.013.9-8.651 1.908-12.988 4.668l-3-1-1 2c-3.42 2.28-4.682 2.22-8.687 2.125l-3.012-.055L282 672v-1l3.05-.812c9.274-2.558 18.028-5.7 26.791-9.684.761-.34 1.523-.678 2.307-1.027l2.037-.935C318 658 318 658 321 659"/><path fill="#ece6dd" d="M399 181v2q-3.12 1.261-6.25 2.5l-3.516 1.406C386 188 386 188 382 188v2a2941 2941 0 0 1-8.875 4l-2.55 1.156-2.442 1.094-2.254 1.016C364 198 364 198 362 198v2l-4 1c1-3 1-3 2.88-4.255l2.468-1.233 2.753-1.384 2.962-1.44 2.997-1.478C393.087 181 393.087 181 399 181"/><path fill="#c8c8c9" d="M551 119c5.426 1.513 9.816 4.061 14.563 7l2.389 1.469c7.057 4.408 13.59 9.289 20.048 14.531l5 4c-4.697-.496-7.095-2.398-10.687-5.375-6.697-5.393-13.868-9.788-21.247-14.18-3.433-2.049-6.8-4.136-10.066-6.445z"/><path fill="#d5c9bb" d="M118 476c3.557 1.455 5.18 3.24 7.438 6.313C130.697 489.13 136.84 495.009 143 501l-1 3c-1.5-1.375-1.5-1.375-3-3v-2l-1.703-.719c-2.816-1.57-4.777-3.496-7.047-5.781l-2.422-2.406C126 488 126 488 126 486l-2-1a80 80 0 0 1-3.125-3.437l-1.633-1.872C118 478 118 478 118 476"/><path fill="#ded6cc" d="m716 265 3 1h-2c2.644 2.722 5.23 5.202 8.25 7.5 3.037 2.761 3.5 3.525 3.75 7.5-2.682 6.982-7.325 13.214-12 19l-1-2 1.68-2.484 2.195-3.266 2.18-3.234c3.965-6.148 3.965-6.148 3.886-9.496-1.27-3.4-3.117-4.677-6.004-6.832l-2.785-2.114L715 269z"/><path fill="#848788" d="M722 339h1l-1 18h-1l-1-6-5 5c-.822-5.4.301-7.938 3.438-12.437A93 93 0 0 1 722 339"/><path fill="#9ea0a1" d="m547.5 619.375 2.473.133c4.726.273 9.352.75 14.027 1.492v1h-37c6.769-3.384 13.146-3.09 20.5-2.625"/><path fill="#d0d0d1" d="M411 233v1c-15.412.762-30.606 1.219-46 0v-1a226.4 226.4 0 0 1 46 0"/><path fill="#736e67" d="M452 216c6.192.688 12.02 2.28 18 4-1.86 1.055-1.86 1.055-4 2-2.25-.875-2.25-.875-4-2v3h2l2 4a156 156 0 0 1-9.25-4.937l-2.703-1.528L452 219z"/><path fill="#cdc5bc" d="M186 675c4.652.629 4.652.629 6.332 2.422 2.181 2.064 4.183 2.622 7.043 3.515l3.2 1.02a829 829 0 0 0 7.07 2.117l3.542 1.051 3.293.945C219 687 219 687 220 689c-6.437-.592-12.089-2.632-18.125-4.875l-2.957-1.066c-9.487-3.482-9.487-3.482-12.918-6.059z"/><path fill="#eeeae0" d="M200 70c-1.3 3.898-2.661 4.157-6.25 6-2.856 1.482-5.675 2.955-8.434 4.613-2.37 1.42-4.73 2.426-7.316 3.387v-3q4.932-2.758 9.875-5.5l2.84-1.59 2.715-1.504 2.507-1.396C198 70 198 70 200 70"/><path fill="#ede8dd" d="M431 174c-3.315 2.21-5.677 2.715-9.562 3.5l-3.762.77L414 179l-3.145.637q-3.425.69-6.855 1.363l-1-2c18.149-5.957 18.149-5.957 28-5"/><path fill="#eae4db" d="m94 126 1 3-2.121 1.133c-3.436 2.228-6.091 4.824-8.942 7.742l-1.564 1.566A102 102 0 0 0 74 149l-2-1 2.16-2.344 2.903-3.156 1.52-1.65a283 283 0 0 0 9.882-11.327C90.17 127.832 91.81 126.956 94 126"/><path fill="#e9dac2" d="M87 134c.883 2.467 1.131 3.639.223 6.14l-1.16 2.11-1.153 2.14L84 146l-2.375-.562C79 145 79 145 77 146c1.477-3.452 3.438-5.65 6.125-8.25l2.195-2.14z"/><path fill="#dac9b1" d="M210 680h32v1h-16v2a691 691 0 0 1-6.312-.375c-1.172-.07-2.344-.14-3.551-.21C213 682 213 682 210 680"/><path fill="#625c55" d="M173 519c2.997.701 5.863 1.606 8.766 2.629l2.695.947 2.789.986 2.836.999q3.458 1.216 6.914 2.439v1c-7.193.836-13.614-1.828-20-5-2.395-2.172-2.395-2.172-4-4"/><path fill="#9c9ea0" d="M0 415c2 1 2 1 2.852 3.285l.773 2.777c.26.92.52 1.839.79 2.786L5 426H3l-1 12H1c-1.25-7.65-1.09-15.274-1-23"/><path fill="#d8c3a7" d="M236 205c-8.262 6.52-8.262 6.52-13 8-1-3-1-3 0-6 2.434-.984 2.434-.984 5.438-1.75l2.996-.797C234 204 234 204 236 205"/><path fill="#cec2b6" d="M155 513c4.144-.298 6.562.525 10.188 2.5 4.631 2.5 4.631 2.5 6.812 2.5l1 5c-6.4-2.348-12.513-4.877-18-9z"/><path fill="#a6a6a6" d="M503 272c4.145.61 7.274 2.137 11 4h3c2.262 1.426 2.262 1.426 4.688 3.313l2.449 1.863L526 283v3a125 125 0 0 1-6-4v-2l-1.687-.516c-5.409-1.717-10.294-3.837-15.313-6.484z"/><path fill="#d8cdbc" d="M744 373h1c1.192 8.343 1.093 16.593 1 25h-1l-1-6h-1a1109 1109 0 0 1-.062-6.125l-.036-3.445c.093-3.243.484-6.25 1.098-9.43"/><path fill="#898a8c" d="m510 103 7 1 1 5h-2l1 6c-4.4-3.822-5.808-6.474-7-12"/><path fill="#c3c4c5" d="M712 239c4.95 3.217 9.667 6.691 14.375 10.25l2.23 1.68q2.7 2.033 5.395 4.07l-1 3c-.677-.72-1.354-1.441-2.05-2.184-3.612-3.613-7.812-6.321-12.042-9.154-3.209-2.214-5.625-3.884-6.908-7.662"/><path fill="#96989a" d="M659 610c-1.491 3.795-3.757 5.61-7 8l-2-3-7 1c2.68-1.787 5.031-2.932 8-4.125l2.625-1.07C656 610 656 610 659 610"/><path fill="#acadaf" d="M645 475q-4.213 1.484-8.437 2.938l-2.374.841c-5.434 1.857-10.462 2.768-16.189 3.221 3.406-3.05 6.491-3.732 10.938-4.562 6.641-1.258 6.641-1.258 9.753-2.59 2.661-.977 3.665-.636 6.309.152"/><path fill="#c7b7a5" d="M140 524c7.526.638 14.671 2.199 22 4v1c-13.835.562-13.835.562-20-3z"/><path fill="#d0c2b2" d="M113 513c3.82 1.207 7.574 2.562 11.313 4l2.613 1c2.074 1 2.074 1 3.074 3-5.922-.423-11.094-1.452-16-5z"/><path fill="#f0eadd" d="m221 56 3 1c-4.42 7.232-4.42 7.232-8.812 8.438L212 66l-1-3c2.038-1.674 3.533-2.89 6.125-3.5C219 59 219 59 221 56"/><path fill="#dac9ad" d="M265 16h2c2.527 6.838 3.278 11.799 2 19-2.262-3.687-2.64-7.54-3.125-11.75l-.262-2.113A824 824 0 0 1 265 16"/><path fill="#bea88f" d="m185 526 8 2c-3.258 1.937-5.656 2.237-9.422 2.195l-3.105-.02-3.223-.05-3.27-.027q-3.99-.036-7.98-.098v-1h18z"/><path fill="#babbbd" d="M506 99c10.558 3.075 10.558 3.075 15 5-4.25 1.417-6.719.193-11-1l1 4c-2.5-2.312-2.5-2.312-5-5z"/><path fill="#545557" d="M3 435c3 2 3 2 3.582 4.496l.23 2.942.27 2.933C7 448 7 448 5 451c-1.19-5.38-2.292-10.453-2-16"/><path fill="#b4b4b4" d="M345 421c.734 1.738.734 1.738 1 4-1.547 2.105-1.547 2.105-3.75 4.188l-2.172 2.105C338 433 338 433 335 434c1.516-3.478 3.577-5.956 6.125-8.75l2.195-2.422z"/><path fill="#efe5d5" d="m115 135 2 1-4 10h-2a91 91 0 0 0-4 4c0-4 0-4 1.875-5.937L111 142a104 104 0 0 0 2-5z"/><path fill="#989898" d="M554 399c5.625-.25 5.625-.25 9 2 2.324.394 4.658.735 7 1l1 4c-5.857-1.662-11.459-3.47-17-6z"/><path fill="#d6cfc5" d="m716 265 3 1h-2c3.494 3.596 7.111 6.835 11 10l-1 4-2.062-2.125c-3.146-3.154-6.527-6.014-9.938-8.875z"/><path fill="#dcd5cb" d="M205 195v2a2436 2436 0 0 1-8.375 4.5l-2.406 1.3-2.305 1.231-2.126 1.143C188 206 188 206 186 206l1-3c1.612-.739 3.233-1.465 4.887-2.105 3.219-1.363 6.18-3.147 9.195-4.907C203 195 203 195 205 195"/><path fill="#e3dcd0" d="m333 650 2 1c-2.253 3.425-3.63 4.855-7.5 6.375-3.245.58-4.493.535-7.5-.375a872 872 0 0 1 6.375-3.562l1.828-1.038c1.567-.861 3.18-1.637 4.797-2.4"/><path fill="#868588" d="M17 453h2c2.32 3.25 3.437 6.059 4 10l-3 1c-.7-1.264-1.384-2.537-2.062-3.812l-1.16-2.145C16 456 16 456 17 453"/><path fill="#d2c0ab" d="m561 277 1.75 2.313c1.98 2.364 3.662 4.048 6.25 5.687h2l2 7-2 1a588 588 0 0 1-4.437-5.187l-2.497-2.918c-2.01-2.817-2.725-4.501-3.066-7.895"/><path fill="#9b9c9e" d="M452 218c3.377.537 6.697 1.11 10 2v3h2l2 4c-3.18-1.538-6.215-3.256-9.25-5.062l-2.703-1.598L452 219z"/><path fill="#cfc0ab" d="M545 264c3.438 1.528 6.19 3.502 9 6v2h2c2.125 1.875 2.125 1.875 4 4v2c-4.052-1.611-6.762-4.5-9.75-7.562l-1.535-1.538C545 265.14 545 265.14 545 264"/><path fill="#797672" d="M577 203q2.188.716 4.375 1.438l2.46.808C586 206 586 206 588 207l-1 5a575 575 0 0 1-3.875-2.812l-2.18-1.583C579 206 579 206 577 203"/><path fill="#aeb0b2" d="M722 339h1v8l-2-3-.75 2.938L719 350c-2.125.875-2.125.875-4 1 1.519-4.557 3.954-8.317 7-12"/><path fill="#d0c0ab" d="M580 302c4.42 4.03 8.318 8.615 11 14l-1 3a2139 2139 0 0 1-5-7.375l-1.445-2.117-1.367-2.031-1.27-1.873C580 304 580 304 580 302"/><path fill="#918a7f" d="M564 284c4.541 4.266 8.247 9.036 12 14l-2 1c-2.26-2.172-4.222-4.446-6.125-6.937l-1.57-2.028c-1.31-2.044-1.87-3.663-2.305-6.035"/><path fill="#dfdeda" d="M510 504h30l-1 2-29-1z"/><path fill="#d5c3ad" d="M529 250q2.126 1.404 4.25 2.813l2.39 1.582c4.585 3.119 4.585 3.119 6.36 4.605v2l2 1c-4.14-.562-6.592-2.827-9.75-5.437l-2.984-2.434L529 252z"/><path fill="#eae2d7" d="m356 200 1 2h-2l-1 3a252 252 0 0 1-7 3l-1 2h-2c.152-1.797.152-1.797 1-4 2.504-1.703 2.504-1.703 5.563-3.25l3.066-1.578z"/><path fill="#ede8e0" d="m413 573 2 1-9 12-2-2z"/><path fill="#ccbca9" d="m489 225 1 2 2.938.875C496 229 496 229 497.375 231.125L498 233c-3.791-1.45-7.387-3.152-11-5v-2z"/><path fill="#cacbcc" d="M684 212c4.174 3.5 8.315 6.98 12 11v2c-3.376-1.125-4.284-2.16-6.562-4.812l-1.817-2.083c-1.517-1.97-2.6-3.845-3.621-6.105"/><path fill="#ebe2d6" d="m96 165 2 2c-.36 3.489-2.141 6.09-4 9l-1-3-2-1 1.375-1.25c1.685-1.814 2.618-3.503 3.625-5.75"/><path fill="#6c6962" d="m705 268-1 3-13 1c4.573-2.286 8.843-4 14-4"/><path fill="#ccbca6" d="m246 199 2 1-7 8c0-3.258.552-5.104 2-8z"/><path fill="#c8caca" d="m401 383 2 1c-3.13 2.648-6.02 4.005-10 5-2.187-.453-2.187-.453-4-1a753 753 0 0 1 5.875-2.562l3.305-1.442z"/><path fill="#b7b8b9" d="M714 351c.75 1.75.75 1.75 1 4-2.284 2.876-4.64 4.56-8 6 1.668-3.941 4.227-6.79 7-10"/><path fill="#e5dfcf" d="M618 246c3.42 1.14 4.289 2.222 6.563 4.938 1.768 2.095 3.497 4.122 5.437 6.062-3.822-.56-5.59-2.213-8.25-4.937l-2.14-2.153C618 248 618 248 618 246"/><path fill="#c8c9c9" d="M336 240h-3v2c-2.75.917-4.36 1.109-7.187 1.063L322 243c4.263-2.842 8.964-5.014 14-3"/><path fill="#bab0a2" d="M448 214c1.938.114 3.876.242 5.813.375 1.078.07 2.157.14 3.269.21C460 215 460 215 463 217l-11-1v2l-3-1z"/><path fill="#d4c8b9" d="M196 677h11v2l3 1a424 424 0 0 1-4.75-.375c-.882-.07-1.763-.14-2.672-.21C200 679 200 679 196 677"/><path fill="#d3b99b" d="m125 500 9 6c-3 1-3 1-4.824.223L124 503z"/><path fill="#bfbfbf" d="m495 262 9 1 1 5c-3.995-1.37-6.8-3.257-10-6"/><path fill="#cfd0d0" d="M421 235c5.03.525 10.019 1.106 15 2v1c-1.937.081-3.875.14-5.812.188l-3.27.105C424 238 424 238 422.113 236.488z"/><path fill="#baab96" d="M162 517c1.46.087 2.918.195 4.375.313l2.46.175C171 518 171 518 173 521l-1 2a502 502 0 0 1-4.437-1.875l-2.497-1.055C163 519 163 519 162 517"/><path fill="#919290" d="M234 298c0 3 0 3-1.531 4.605l-1.969 1.582-1.969 1.606L227 307c.809-4.793 3.26-6.135 7-9"/><path fill="#938c86" d="M498 233c2.915 1.074 4.778 1.778 7 4l-2 4a967 967 0 0 1-2.5-3.437l-1.406-1.934C498 234 498 234 498 233"/><path fill="#e4dfd7" d="M353 638c-1.116 3.347-1.513 3.62-4.437 5.25L345 645l-2-1a617 617 0 0 1 3.875-3l2.18-1.687C351 638 351 638 353 638"/><path fill="#a0998f" d="m621 361 7 6-4 1c-3-3.625-3-3.625-3-7"/><path fill="#928a7e" d="M611 350c3.63 2.65 5.899 5.018 8 9-2.953-1.371-5.604-2.775-8-5z"/><path fill="#f1ece3" d="m237 43 2 2-7 6c0-3 0-3 2.5-5.687z"/><path fill="#efe9dc" d="m125 123 2 2-6 7-1-2c1.433-2.729 2.817-4.817 5-7"/><path fill="#babcbd" d="M659 610c-1.75 3.875-1.75 3.875-4 5v-2l-4-1c2.906-1.257 4.796-2 8-2"/><path fill="#efe9e0" d="m420 564 2 1-6 7-2-1z"/><path fill="#d6c5b1" d="m21 394 2 1c.633 2.066.633 2.066 1.125 4.563l.508 2.503L25 404l-3-1z"/><path fill="#d6c2a9" d="m459 632 3 1-7 6 1-4 3-1z"/><path fill="#cdbfb0" d="M140 524c3.375.313 3.375.313 7 1l2 3c-5.538-.615-5.538-.615-7.875-2.562z"/><path fill="#e6e5e2" d="M541 505h8v1h-8z"/></svg>