<svg xmlns="http://www.w3.org/2000/svg" width="1024" height="1024" viewBox="0 0 1024 1024">
  <defs>
    <linearGradient id="coral" x1="0" y1="0" x2="0" y2="1">
      <stop offset="0" stop-color="#f4794f"/>
      <stop offset="1" stop-color="#e2551f"/>
    </linearGradient>
  </defs>
  <rect x="100" y="100" width="824" height="824" rx="190" fill="url(#coral)"/>
  <g transform="translate(292,292) scale(9.1667)" fill="none" stroke="#fffaf2"
     stroke-width="2.4" stroke-linecap="round" stroke-linejoin="round">
    <path d="M30 18c-7 0-12 5-12 11 0 4 2.4 7.4 6 9 -3.2 .6 -6 .2 -8.4 -1.2 1.2 2.6 4 4.2 7.6 4.2 8 0 14 -6 14 -14 0 -1.6 -.3 -3.1 -.8 -4.5"/>
    <path d="M30 27c2.8 0 5.2 1.4 6.6 3.6"/>
    <path d="M18 19l-7 -3 7 -2"/>
    <path d="M9 11l-2.5 -2.5"/>
    <path d="M13 9l-1 -3"/>
    <circle cx="25.5" cy="21.5" r="1.6" fill="#fffaf2" stroke="none"/>
  </g>
</svg>
